<?xml version="1.0" standalone="no"?>
<!DOCTYPE svg PUBLIC "-//W3C//DTD SVG 20010904//EN"
 "http://www.w3.org/TR/2001/REC-SVG-20010904/DTD/svg10.dtd">
<svg version="1.0" xmlns="http://www.w3.org/2000/svg"
 width="1920.000000pt" height="1080.000000pt" viewBox="0 0 1920.000000 1080.000000"
 preserveAspectRatio="xMidYMid meet">
<metadata>
Created by potrace 1.16, written by Peter Selinger 2001-2019
</metadata>
<g transform="translate(0.000000,1080.000000) scale(0.100000,-0.100000)"
fill="#000000" stroke="none">
<path d="M9560 10160 c-8 -4 -69 -117 -135 -249 -112 -226 -122 -241 -150
-246 -16 -3 -136 -21 -265 -41 -266 -40 -276 -44 -271 -118 0 -10 88 -103 193
-206 l193 -187 -45 -265 c-49 -290 -48 -311 6 -324 29 -7 67 10 359 165 l151
79 234 -123 c129 -68 245 -124 256 -125 28 0 74 37 74 59 0 10 -20 133 -46
275 l-45 258 195 190 c202 196 212 210 186 258 -14 25 -47 33 -295 69 -115 17
-223 34 -238 37 -25 5 -40 30 -143 237 -64 128 -123 240 -132 250 -16 18 -57
22 -82 7z m140 -410 c52 -105 99 -195 105 -200 6 -5 105 -23 220 -40 115 -17
210 -32 212 -34 2 -2 -66 -71 -152 -153 -140 -136 -155 -153 -155 -184 0 -19
15 -119 34 -224 18 -104 33 -191 32 -192 -1 -1 -82 41 -181 93 -99 52 -190 97
-202 100 -15 4 -79 -24 -216 -95 l-194 -101 33 193 c19 105 34 208 34 227 0
32 -13 47 -155 184 -86 82 -154 150 -153 152 2 1 98 17 213 34 115 17 216 37
224 43 8 7 55 96 104 199 50 104 93 188 97 188 3 0 48 -86 100 -190z"/>
<path d="M11497 9638 c-9 -7 -59 -102 -112 -210 -53 -109 -100 -198 -104 -198
-5 0 -99 -13 -209 -30 -111 -16 -206 -30 -212 -30 -21 0 -50 -41 -50 -71 0
-27 21 -52 162 -188 l162 -157 -39 -221 c-36 -211 -37 -223 -21 -247 32 -50
50 -46 268 67 l203 105 188 -99 c104 -54 198 -101 211 -105 28 -7 76 30 76 59
0 12 -17 116 -37 231 l-37 210 162 156 c143 138 162 160 162 188 0 32 -29 72
-52 72 -7 0 -103 14 -213 30 -110 16 -203 30 -207 30 -4 0 -50 89 -103 198
-52 108 -103 203 -112 210 -9 6 -29 12 -43 12 -14 0 -34 -6 -43 -12z m128
-368 c52 -104 82 -153 98 -160 12 -5 90 -19 172 -30 83 -12 152 -24 155 -26 2
-3 -52 -61 -120 -129 l-125 -125 28 -166 c16 -91 26 -168 23 -171 -3 -3 -70
29 -150 71 -80 42 -152 76 -159 76 -7 0 -77 -34 -155 -75 -78 -41 -146 -75
-151 -75 -4 0 4 72 20 160 15 88 25 168 22 178 -3 9 -59 71 -125 138 l-119
120 158 23 c87 13 168 30 181 37 13 9 52 75 95 159 39 80 73 145 74 145 2 0
37 -68 78 -150z"/>
<path d="M7614 9622 c-6 -4 -55 -94 -108 -199 -75 -152 -101 -194 -118 -198
-13 -2 -102 -16 -198 -30 -96 -14 -185 -28 -197 -30 -31 -7 -57 -49 -49 -79 3
-14 75 -92 159 -175 l154 -151 -38 -207 c-27 -153 -34 -214 -27 -232 24 -64
60 -56 275 55 l185 97 57 -30 c281 -149 310 -163 343 -163 38 0 68 24 68 56 0
10 -16 110 -36 221 l-35 202 152 148 c83 81 155 158 160 171 12 30 -14 80 -44
87 -12 2 -103 16 -202 30 -99 14 -189 28 -200 30 -15 3 -44 53 -109 187 -50
101 -96 191 -104 201 -15 17 -67 23 -88 9z m111 -362 c37 -77 74 -145 81 -151
7 -5 70 -19 141 -29 70 -11 143 -22 161 -25 l32 -6 -114 -110 c-63 -61 -118
-119 -121 -129 -3 -10 6 -87 20 -170 15 -83 25 -154 22 -156 -4 -4 -94 41
-214 107 -29 16 -65 29 -80 29 -14 0 -87 -32 -161 -71 -74 -39 -136 -69 -137
-67 -2 2 7 66 21 143 13 77 24 151 24 165 0 18 -30 55 -117 142 -134 134 -140
118 57 143 69 9 135 21 147 27 13 7 45 61 90 154 37 79 71 144 74 144 3 0 36
-63 74 -140z"/>
<path d="M12963 8922 c-7 -4 -46 -76 -87 -159 -71 -144 -77 -152 -108 -158
-18 -3 -94 -14 -168 -25 -120 -18 -138 -23 -158 -47 -38 -42 -24 -66 110 -194
l122 -117 -27 -158 c-15 -88 -27 -167 -27 -177 0 -10 11 -29 26 -43 33 -34 45
-30 217 62 l139 75 136 -74 c75 -40 145 -76 155 -80 30 -11 67 3 82 32 12 24
10 44 -11 166 -13 77 -26 151 -29 165 -5 22 12 42 120 150 127 127 139 146
115 189 -13 26 -24 29 -205 57 -88 13 -161 28 -163 32 -2 4 -38 75 -80 157
-76 148 -78 150 -112 153 -19 1 -41 -1 -47 -6z m91 -314 c24 -51 50 -101 57
-111 10 -12 46 -22 132 -35 l117 -17 -85 -85 c-97 -96 -95 -91 -69 -233 9 -48
14 -90 11 -93 -2 -3 -52 18 -109 47 l-105 52 -102 -52 c-57 -29 -105 -50 -108
-47 -3 3 2 46 11 95 25 139 27 132 -69 231 l-86 87 93 12 c153 20 148 17 206
136 28 58 54 105 57 105 3 0 25 -42 49 -92z"/>
<path d="M6162 8850 c-16 -7 -44 -53 -97 -161 -41 -84 -76 -154 -79 -156 -3
-3 -306 -52 -328 -53 -4 0 -17 -10 -28 -22 -39 -42 -23 -71 112 -199 l122
-116 -27 -154 c-32 -181 -33 -201 -9 -222 29 -26 78 -20 145 17 34 18 97 52
140 75 l78 41 149 -76 c161 -82 189 -87 222 -43 19 25 19 27 -12 194 l-31 168
120 114 c66 62 123 123 126 134 10 29 -2 67 -24 78 -10 6 -92 22 -181 36 -90
14 -165 26 -166 28 -1 1 -36 70 -78 154 -84 169 -99 185 -154 163z m89 -335
c58 -119 48 -113 213 -135 l89 -12 -87 -86 c-97 -97 -94 -86 -67 -234 9 -54
15 -98 12 -98 -3 0 -48 23 -100 50 -51 28 -103 50 -114 50 -11 0 -62 -23 -114
-51 -52 -28 -97 -48 -100 -45 -3 3 2 47 11 99 9 52 16 105 16 117 0 15 -29 52
-85 110 l-85 87 112 16 c61 10 118 23 126 29 7 7 36 56 63 110 27 54 51 98 54
98 3 0 28 -47 56 -105z"/>
<path d="M7268 7805 c-141 -52 -225 -181 -216 -330 9 -133 82 -236 204 -286
l54 -23 -2 -715 -3 -716 -1185 -5 -1185 -5 -50 -24 c-145 -72 -217 -237 -171
-394 28 -96 121 -194 206 -217 l40 -11 0 -2200 0 -2200 25 -24 24 -25 4589 0
c4504 0 4590 0 4613 19 l24 19 3 2204 2 2204 55 23 c68 28 135 93 171 166 37
77 38 188 1 267 -32 72 -83 127 -149 164 l-53 29 -1187 3 -1188 2 0 718 0 718
58 26 c253 117 266 458 21 593 l-54 30 -2305 2 c-1936 1 -2311 -1 -2342 -12z
m4659 -161 c56 -46 78 -89 78 -156 0 -47 -6 -64 -30 -99 -17 -23 -50 -53 -74
-66 l-44 -23 -2256 0 -2257 0 -44 23 c-24 12 -58 39 -74 60 -28 35 -31 46 -31
106 0 84 30 137 97 170 l43 21 2277 -2 2276 -3 39 -31z m-179 -3676 l-3 -3193
-320 0 -320 0 -3 729 -2 729 65 68 65 67 0 314 c0 345 -4 373 -61 475 -39 69
-129 149 -209 187 l-65 31 -1255 3 c-908 2 -1272 0 -1315 -8 -169 -32 -317
-182 -354 -358 -7 -31 -11 -169 -11 -339 0 -324 -3 -312 85 -387 l45 -38 0
-739 0 -739 -320 0 -320 0 0 3195 0 3195 2150 0 2150 0 -2 -3192z m-4438 1432
l0 -190 -1155 0 c-1253 0 -1194 -3 -1253 53 -96 89 -75 249 40 306 l43 21
1163 0 1162 0 0 -190z m6967 154 c54 -44 76 -86 77 -148 1 -67 -28 -122 -83
-161 l-43 -30 -1169 -3 -1169 -2 0 190 0 190 1174 -2 1174 -3 39 -31z m-6967
-2634 l0 -2150 -1105 0 -1105 0 0 2150 0 2150 1105 0 1105 0 0 -2150z m6790 0
l0 -2150 -1105 0 -1105 0 0 2150 0 2150 1105 0 1105 0 0 -2150z m-5620 -88 l0
-408 -37 -36 c-46 -45 -98 -68 -153 -68 -52 0 -94 18 -147 65 l-43 37 0 266
c0 147 5 287 11 312 12 56 67 140 114 176 50 38 129 63 198 64 l57 0 0 -408z
m530 5 l0 -403 -42 -41 c-50 -49 -102 -73 -157 -73 -55 0 -88 16 -143 69 l-48
45 0 403 0 403 195 0 195 0 0 -403z m520 -1 l0 -404 -25 -30 c-35 -42 -119
-82 -171 -82 -57 0 -90 15 -141 64 l-43 40 0 408 0 408 190 0 190 0 0 -404z
m520 -5 l0 -409 -42 -37 c-54 -47 -96 -65 -148 -65 -55 0 -107 23 -152 68
l-38 36 0 408 0 408 190 0 190 0 0 -409z m520 0 l0 -409 -41 -37 c-98 -88
-200 -88 -298 0 l-41 37 0 409 0 409 190 0 190 0 0 -409z m310 392 c65 -21
142 -89 178 -157 l27 -51 3 -294 3 -294 -33 -35 c-63 -66 -157 -89 -232 -58
-18 7 -51 31 -74 53 l-42 40 0 406 0 407 59 0 c32 0 82 -8 111 -17z m-1664
-1023 c77 -28 172 -27 249 5 33 14 61 25 63 25 1 0 2 -329 2 -730 l0 -730
-452 2 -453 3 -3 729 c-2 691 -1 728 15 721 104 -44 119 -47 198 -43 88 5 158
34 211 89 l27 28 44 -39 c25 -22 70 -48 99 -60z m942 61 c68 -54 119 -74 201
-79 74 -4 91 0 194 43 16 7 17 -32 17 -724 l0 -731 -450 0 -450 0 0 730 c0
402 2 730 4 730 2 0 29 -12 61 -26 50 -23 67 -26 139 -22 68 3 91 10 143 37
34 18 70 42 79 52 9 10 19 19 21 19 2 0 21 -13 41 -29z m-1678 -761 l0 -730
-125 0 -125 0 0 704 0 703 78 5 c52 3 90 11 117 26 22 12 43 21 48 22 4 0 7
-328 7 -730z m2294 705 c41 -18 74 -25 121 -25 l65 0 0 -705 0 -705 -125 0
-125 0 0 730 c0 402 2 730 4 730 2 0 29 -11 60 -25z"/>
<path d="M8003 6770 c-12 -5 -26 -18 -32 -29 -7 -13 -11 -121 -11 -300 0 -268
1 -282 20 -301 19 -19 33 -20 248 -20 209 0 230 2 245 18 15 16 17 53 17 310
l0 291 -26 20 c-25 20 -39 21 -233 20 -113 0 -216 -4 -228 -9z m347 -320 l0
-190 -125 0 -125 0 0 190 0 190 125 0 125 0 0 -190z"/>
<path d="M8915 6768 c-11 -6 -23 -16 -27 -22 -4 -6 -8 -142 -8 -302 0 -269 1
-292 18 -307 16 -15 48 -17 243 -17 123 0 229 4 235 8 30 20 34 55 34 314 0
145 -3 273 -6 286 -13 45 -47 52 -266 52 -132 -1 -210 -5 -223 -12z m355 -318
l0 -190 -127 0 -128 0 3 190 3 190 124 0 125 0 0 -190z"/>
<path d="M9817 6760 l-27 -21 0 -289 c0 -259 2 -290 18 -309 16 -20 26 -21
227 -21 116 -1 218 -1 228 0 9 0 26 9 37 20 19 19 20 33 20 304 0 264 -1 285
-19 307 -19 24 -22 24 -238 27 -211 3 -220 2 -246 -18z m363 -310 l0 -190
-125 0 -125 0 0 190 0 190 125 0 125 0 0 -190z"/>
<path d="M10743 6770 c-40 -16 -43 -38 -43 -319 0 -275 4 -313 39 -326 9 -4
115 -6 236 -5 187 0 222 3 237 17 17 15 18 40 18 307 0 160 -4 296 -8 303 -4
6 -20 17 -35 22 -34 13 -412 14 -444 1z m347 -320 l0 -190 -125 0 -125 0 0
190 0 190 125 0 125 0 0 -190z"/>
<path d="M8202 5860 c-197 -5 -215 -7 -228 -24 -11 -16 -14 -74 -14 -303 l0
-284 25 -24 c24 -25 24 -25 238 -25 202 0 216 1 241 21 l26 20 0 293 c0 267
-2 294 -17 308 -27 23 -40 23 -271 18z m148 -330 l0 -190 -125 0 -125 0 0 190
0 190 125 0 125 0 0 -190z"/>
<path d="M8897 5842 c-15 -16 -17 -53 -17 -310 0 -287 0 -292 22 -312 21 -19
34 -20 239 -20 198 0 219 2 240 19 l24 19 3 284 c3 277 2 285 -18 311 l-21 27
-228 0 c-208 0 -229 -2 -244 -18z m373 -312 l0 -190 -125 0 -124 0 -3 190 -3
190 128 0 127 0 0 -190z"/>
<path d="M9806 5838 c-14 -19 -16 -66 -16 -309 l0 -288 26 -20 c25 -20 39 -21
241 -21 214 0 214 0 238 25 l25 24 0 283 c0 240 -2 287 -16 306 -15 22 -19 22
-249 22 -230 0 -234 0 -249 -22z m374 -308 l0 -190 -125 0 -125 0 0 190 0 190
125 0 125 0 0 -190z"/>
<path d="M10724 5846 c-18 -14 -19 -29 -19 -311 l0 -297 24 -19 c21 -17 41
-19 233 -19 204 0 241 5 260 34 4 6 8 142 8 302 0 269 -1 292 -18 307 -16 15
-48 17 -243 17 -179 0 -229 -3 -245 -14z m366 -316 l0 -190 -125 0 -125 0 0
190 0 190 125 0 125 0 0 -190z"/>
<path d="M7985 4925 l-25 -24 0 -279 c0 -267 1 -280 21 -306 l20 -26 223 0
c184 0 225 3 244 16 22 15 22 17 22 309 0 290 0 295 -22 315 -21 19 -34 20
-240 20 l-219 0 -24 -25z m365 -305 l0 -190 -125 0 -125 0 0 190 0 190 125 0
125 0 0 -190z"/>
<path d="M8902 4934 c-22 -15 -22 -17 -22 -313 0 -276 1 -299 18 -314 16 -15
48 -17 245 -17 l226 0 20 26 c20 26 21 39 21 306 l0 279 -25 24 -24 25 -218 0
c-182 0 -222 -3 -241 -16z m368 -314 l0 -190 -127 0 -128 0 0 190 0 190 128 0
127 0 0 -190z"/>
<path d="M9812 4927 c-22 -23 -22 -29 -22 -310 0 -274 1 -288 20 -307 19 -19
33 -20 245 -20 212 0 226 1 245 20 19 19 20 33 20 309 l0 290 -26 20 c-25 20
-39 21 -244 21 -213 0 -217 0 -238 -23z m368 -307 l0 -190 -125 0 -125 0 0
190 0 190 125 0 125 0 0 -190z"/>
<path d="M10725 4925 l-25 -24 0 -279 c0 -267 1 -280 21 -306 l20 -26 228 0
c208 0 229 2 244 18 15 16 17 53 17 310 0 279 -1 293 -20 312 -19 19 -33 20
-240 20 l-221 0 -24 -25z m365 -305 l0 -190 -125 0 -125 0 0 190 0 190 125 0
125 0 0 -190z"/>
<path d="M8003 3900 c-44 -18 -56 -77 -23 -110 20 -20 33 -20 1618 -20 1536 0
1600 1 1615 18 17 19 22 68 9 88 -22 34 -34 34 -1624 33 -881 0 -1583 -4
-1595 -9z"/>
<path d="M5505 4665 l-25 -24 0 -279 c0 -267 1 -280 21 -306 l20 -26 225 0
c211 0 225 1 244 20 19 19 20 33 20 308 0 158 -4 292 -8 298 -19 29 -55 34
-262 34 -211 0 -211 0 -235 -25z m365 -305 l0 -190 -125 0 -125 0 0 190 0 190
125 0 125 0 0 -190z"/>
<path d="M6422 4674 c-22 -15 -22 -17 -22 -313 0 -276 1 -299 18 -314 16 -15
48 -17 245 -17 l226 0 21 27 c20 26 21 34 18 311 l-3 284 -24 19 c-21 17 -42
19 -240 19 -180 0 -220 -3 -239 -16z m368 -314 l0 -191 -125 3 c-69 2 -125 6
-125 11 0 4 0 88 0 187 l0 180 125 0 125 0 0 -190z"/>
<path d="M5500 3750 c-19 -19 -20 -33 -20 -305 l0 -286 25 -24 c24 -25 24 -25
238 -25 202 0 216 1 241 21 l26 20 0 293 c0 271 -1 294 -18 309 -16 15 -48 17
-245 17 -214 0 -228 -1 -247 -20z m370 -305 l0 -195 -125 0 -125 0 0 188 c0
104 3 192 7 195 3 4 60 7 125 7 l118 0 0 -195z"/>
<path d="M6417 3752 c-15 -16 -17 -53 -17 -308 0 -159 4 -294 8 -300 19 -29
55 -34 259 -34 190 0 210 2 233 20 l25 19 3 273 c2 150 0 283 -3 295 -13 52
-20 53 -264 53 -208 0 -229 -2 -244 -18z m368 -307 l0 -190 -122 -3 -123 -3 0
196 0 196 123 -3 122 -3 0 -190z"/>
<path d="M5501 2834 c-20 -26 -21 -39 -21 -304 0 -265 1 -278 21 -304 l20 -26
223 0 c210 0 223 1 244 20 22 20 22 25 22 310 0 277 -1 291 -20 310 -19 19
-33 20 -244 20 l-225 0 -20 -26z m369 -304 l0 -190 -125 0 -125 0 0 190 0 190
125 0 125 0 0 -190z"/>
<path d="M6417 2842 c-15 -16 -17 -53 -17 -315 0 -294 0 -296 22 -311 19 -13
59 -16 239 -16 198 0 219 2 240 19 l24 19 3 284 c3 277 2 285 -18 311 l-21 27
-228 0 c-208 0 -229 -2 -244 -18z m373 -312 l0 -191 -125 3 c-69 2 -125 6
-125 11 0 4 0 88 0 187 l0 180 125 0 125 0 0 -190z"/>
<path d="M5520 1807 c-38 -19 -49 -61 -23 -95 l20 -27 688 0 688 0 19 26 c14
18 17 33 12 53 -14 57 -3 56 -721 56 -508 0 -664 -3 -683 -13z"/>
<path d="M12292 4670 c-22 -20 -22 -25 -22 -310 0 -277 1 -291 20 -310 19 -19
33 -20 245 -20 212 0 226 1 245 20 19 19 20 33 20 308 l0 289 -23 21 c-22 21
-31 22 -243 22 -208 0 -221 -1 -242 -20z m368 -310 l0 -190 -125 0 -125 0 0
190 0 190 125 0 125 0 0 -190z"/>
<path d="M13205 4666 l-25 -25 0 -279 c0 -267 1 -280 21 -306 l20 -26 228 0
c208 0 229 2 244 18 15 16 17 53 17 308 0 235 -3 294 -14 310 -13 18 -30 19
-240 22 l-226 3 -25 -25z m365 -306 l0 -190 -125 0 -125 0 0 190 0 190 125 0
125 0 0 -190z"/>
<path d="M12290 3750 c-19 -19 -20 -33 -20 -309 l0 -290 26 -20 c25 -20 39
-21 241 -21 214 0 214 0 238 25 l25 24 0 283 c0 240 -2 287 -16 306 -15 22
-19 22 -245 22 -216 0 -230 -1 -249 -20z m370 -305 l0 -195 -125 0 -125 0 0
195 0 195 125 0 125 0 0 -195z"/>
<path d="M13206 3754 c-9 -8 -18 -25 -21 -37 -3 -12 -5 -145 -3 -295 l3 -274
24 -19 c21 -17 41 -19 233 -19 204 0 241 5 260 34 4 6 8 142 8 302 0 269 -1
292 -18 307 -16 15 -48 17 -245 17 -192 0 -228 -2 -241 -16z m364 -309 l0
-195 -125 0 -125 0 0 188 c0 104 3 192 7 195 3 4 60 7 125 7 l118 0 0 -195z"/>
<path d="M12290 2840 c-19 -19 -20 -33 -20 -310 0 -285 0 -290 22 -310 21 -19
34 -20 239 -20 204 0 218 1 243 21 l26 20 0 290 c0 276 -1 290 -20 309 -19 19
-33 20 -245 20 -212 0 -226 -1 -245 -20z m370 -310 l0 -190 -125 0 -125 0 0
190 0 190 125 0 125 0 0 -190z"/>
<path d="M13200 2833 c-20 -26 -21 -34 -18 -311 l3 -284 24 -19 c21 -17 42
-19 242 -19 206 0 220 1 239 20 19 19 20 33 20 313 0 272 -1 295 -18 310 -16
15 -48 17 -245 17 l-226 0 -21 -27z m370 -303 l0 -190 -125 0 -125 0 0 190 0
190 125 0 125 0 0 -190z"/>
<path d="M12296 1799 c-32 -25 -35 -70 -6 -99 20 -20 33 -20 703 -20 650 0
685 1 700 18 18 19 22 68 9 89 -19 31 -70 33 -721 33 -651 0 -659 0 -685 -21z"/>
</g>
</svg>
